<svg xmlns="http://www.w3.org/2000/svg" width="32" height="32" viewBox="0 0 16 16"><!-- Source: https://github.com/ya2s/nonicons/blob/master/src/icons/nonicons/json-16.svg --><path fill="#1779ba" d="M8 1.5q.126 0 .25.005v.002h.07a6.5 6.5 0 0 1 2.22.508q.145.077.277.164c.617.402 1.066.967 1.383 1.623c.644 1.335.71 2.985.557 4.101c-.271 1.899-1.09 2.822-1.907 3.273a3 3 0 0 1-.394.184C11.054 10.567 11.5 9.466 11.5 8c0-3.195-2.118-4.65-3.303-4.974l-.017-.004l-.017-.004c-.888-.197-2.245-.185-3.488.5c-1.283.708-2.339 2.076-2.667 4.376l-.001.004c-.1.73-.126 1.672.014 2.657A6.5 6.5 0 0 1 8 1.5M8.364.008a8 8 0 1 0 2.816.649C10.4.255 9.465.023 8.364.008m5.956 6.465a6.5 6.5 0 0 1-6.893 8.002c-.84-.075-1.488-.317-1.994-.646c-.618-.403-1.066-.968-1.383-1.624c-.644-1.335-.71-2.985-.557-4.1c.271-1.9 1.09-2.823 1.907-3.273q.195-.108.394-.184C5.197 5.44 4.75 6.54 4.75 8.008c0 3.195 2.118 4.65 3.303 4.973l.017.005l.017.003c.888.198 2.245.186 3.488-.5c1.283-.708 2.339-2.075 2.668-4.376V8.11a9.6 9.6 0 0 0 .077-1.637M8.133 4.6C8.867 4.954 10 5.943 10 8c0 2.072-1.15 3.06-1.883 3.407c-.734-.354-1.867-1.342-1.867-3.4c0-2.071 1.15-3.06 1.883-3.407"/></svg>
